<?xml version="1.0" encoding="utf-8"?>
<!-- Generator: Adobe Illustrator 22.0.0, SVG Export Plug-In . SVG Version: 6.00 Build 0)  -->
<svg version="1.1" id="Layer_1" xmlns="http://www.w3.org/2000/svg" xmlns:xlink="http://www.w3.org/1999/xlink" x="0px" y="0px"
	 viewBox="0 0 1000 1000" style="enable-background:new 0 0 1000 1000;" xml:space="preserve">
<path d="M500,500c5.5,0,10-4.5,10-10s-4.5-10-10-10s-10,4.5-10,10S494.5,500,500,500z"/>
<path d="M921.9,318.2H806.4L628.7,33.7c-16-31.8-51.1-43.2-79-25.2c-28.3,18.3-38.5,59.8-22.8,92.7c0.5,0.9,0.9,1.8,1.5,2.7
	l139.4,214.2H332.2L471.6,104c0.5-0.9,1.1-1.7,1.5-2.7c15.7-32.9,5.6-74.4-22.8-92.7c-27.9-18-63-6.6-79,25.2L193.6,318.2H78.1
	C35,318.2,0,358.9,0,409.1c0,39.5,22,74,53.1,86.1c3.3,3,7.4,4.8,11.9,4.8c0.9,0,1.7,0.1,2.6,0.2c8.4,1.3,15.1,8.7,16.6,18.4
	L150.7,944c5.1,32.4,29.3,56,57.7,56h583.2c28.3,0,52.6-23.5,57.7-56l66.4-425.4c1.5-9.7,8.2-17.1,16.6-18.5
	c0.9-0.1,1.7-0.2,2.6-0.2c4.5,0,8.7-1.8,12-4.8c31.1-12.3,53-46.6,53-86.1C1000,358.9,965,318.2,921.9,318.2z M560.5,78
	c-4.5-10.8-1-23.8,8.1-29.7c9.5-6.1,21.4-2.2,26.6,8.8c0.4,0.8,0.8,1.6,1.3,2.3l161.6,258.7h-41.3L560.5,78z M403.5,59.4
	c0.5-0.7,0.9-1.5,1.3-2.3c5.2-10.9,17.2-14.9,26.6-8.8c9.1,5.9,12.6,19,8.1,29.7L283.2,318.2h-41.3L403.5,59.4z M921.9,454.5H578.1
	c-10.8,0-19.5,10.2-19.5,22.7s8.7,22.5,19.5,22.5h301.6c-1,3.4-1.8,6.9-2.4,10.5l-66.5,425.6c-1.7,10.8-9.8,18.7-19.2,18.7H208.4
	c-9.5,0-17.5-7.8-19.2-18.7l-66.4-425.4c-0.6-3.6-1.4-7.1-2.4-10.5h301.6c10.8,0,19.5-10.2,19.5-22.7s-8.7-22.7-19.5-22.7H78.1
	c-21.7,0-39.1-20.6-39.1-45.5c0-25.1,17.5-45.5,39.1-45.5h843.8c21.5,0,39.1,20.4,39.1,45.5C960.9,434.3,943.2,454.5,921.9,454.5z"
	/>
<path d="M500,530c-16.5,0-30,13.5-30,30v80c0,16.5,13.5,30,30,30s30-13.5,30-30v-80C530,543.4,516.6,530,500,530z M510,640
	c0,5.5-4.5,10-10,10s-10-4.5-10-10v-80c0-5.5,4.5-10,10-10c5.5,0,10,4.5,10,10V640z"/>
<path d="M600,670c16.5,0,30-13.5,30-30v-80c0-16.6-13.4-30-30-30c-16.5,0-30,13.5-30,30v80C570,656.5,583.5,670,600,670z M590,560
	c0-5.5,4.5-10,10-10c5.5,0,10,4.5,10,10v80c0,5.5-4.5,10-10,10s-10-4.5-10-10V560z"/>
<path d="M400,530c-16.5,0-30,13.5-30,30v80c0,16.5,13.5,30,30,30s30-13.5,30-30v-80C430,543.4,416.6,530,400,530z M410,640
	c0,5.5-4.5,10-10,10s-10-4.5-10-10v-80c0-5.5,4.5-10,10-10c5.5,0,10,4.5,10,10V640z"/>
</svg>
