<?xml version="1.0" encoding="utf-8"?>
<!-- Generator: Adobe Illustrator 22.0.0, SVG Export Plug-In . SVG Version: 6.00 Build 0)  -->
<svg version="1.1" id="Capa_1" xmlns="http://www.w3.org/2000/svg" xmlns:xlink="http://www.w3.org/1999/xlink" x="0px" y="0px"
	 viewBox="0 0 1000 1000" style="enable-background:new 0 0 1000 1000;" xml:space="preserve">
<g>
	<path d="M903.2,0H96.8C43.5,0,0,48.2,0,107.1s43.5,107.1,96.8,107.1h806.5c53.2,0,96.8-48.2,96.8-107.1S956.5,0,903.2,0z"/>
	<path d="M903.2,392.9H96.8C43.5,392.9,0,441.1,0,500s43.5,107.1,96.8,107.1h806.5c53.2,0,96.8-48.2,96.8-107.1
		S956.5,392.9,903.2,392.9z"/>
	<path d="M903.2,785.7H96.8C43.5,785.7,0,833.9,0,892.9C0,951.8,43.5,1000,96.8,1000h806.5c53.2,0,96.8-48.2,96.8-107.1
		C1000,833.9,956.5,785.7,903.2,785.7z"/>
</g>
</svg>
