<?xml version="1.0" encoding="utf-8"?>
<!-- Generator: Adobe Illustrator 22.0.0, SVG Export Plug-In . SVG Version: 6.00 Build 0)  -->
<svg version="1.1" id="Cabinet" xmlns="http://www.w3.org/2000/svg" xmlns:xlink="http://www.w3.org/1999/xlink" x="0px" y="0px"
	 viewBox="0 0 1000 1000" style="enable-background:new 0 0 1000 1000;" xml:space="preserve">
<path d="M976.2,0H23.8C10.7,0,0,7.5,0,16.7v866.7c0,9.2,10.7,16.7,23.8,16.7h23.8v83.3c0,9.2,10.7,16.7,23.8,16.7h95.2
	c11.7,0,21.7-5.9,23.6-14l20.5-86h578.6l20.5,86c1.9,8.1,11.9,14,23.6,14h95.2c13.1,0,23.8-7.5,23.8-16.7V900h23.8
	c13.1,0,23.8-7.5,23.8-16.7V16.7C1000,7.5,989.3,0,976.2,0z M146.4,966.7H95.2V900h67.1L146.4,966.7z M476.2,866.7H47.6V600h428.6
	V866.7z M190.5,566.7v-200h23.8v200H190.5z M261.9,566.7v-200h23.8v200H261.9z M333.3,566.7v-200h23.8v200H333.3z M404.8,566.7
	V448.8L466,566.7H404.8z M416.4,374l22.4-5.7l97.9,188l-22.4,5.7L416.4,374z M904.8,966.7h-51.2l-16-66.7h67.1V966.7z M952.4,866.7
	H523.8V600h428.6V866.7z M952.4,566.7H590.7c0.2-2.1-0.2-4.2-1.2-6.2l-114-219.2c-4.4-8.6-17.9-13.1-30.2-10.1c-0.1,0-0.2,0-0.3,0.1
	l-43.3,11c-3.9-5.5-11.9-9-20.7-9H166.7c-13.1,0-23.8,7.5-23.8,16.7v216.7H47.6v-250h904.8V566.7z M214.3,250H500v33.3H214.3V250z
	 M142.9,216.7v-33.3h285.7v33.3H142.9z M619,283.3v-200h47.6v200H619z M714.3,283.3v-200h47.6v200H714.3z M809.5,283.3v-200h47.6
	v200H809.5z M952.4,283.3h-47.6v-200h47.6V283.3z M952.4,50H595.2c-13.1,0-23.8,7.5-23.8,16.7v216.7h-23.8v-50
	c0-9.2-10.7-16.7-23.8-16.7h-47.6v-50c0-9.2-10.7-16.7-23.8-16.7H119c-13.1,0-23.8,7.5-23.8,16.7v66.7c0,9.2,10.7,16.7,23.8,16.7
	h47.6v33.3h-119v-250h904.8V50z"/>
<circle cx="460" cy="580" r="16"/>
<circle cx="540" cy="580" r="16"/>
</svg>
