<?xml version="1.0" encoding="utf-8"?>
<!-- Generator: Adobe Illustrator 22.0.0, SVG Export Plug-In . SVG Version: 6.00 Build 0)  -->
<svg version="1.1" id="Layer_1" xmlns="http://www.w3.org/2000/svg" xmlns:xlink="http://www.w3.org/1999/xlink" x="0px" y="0px"
	 viewBox="0 0 1000 1000" style="enable-background:new 0 0 1000 1000;" xml:space="preserve">
<path d="M983.3,360H850v-40c0-11-7.5-20-16.7-20H800v40h16.7v20h-33.3v-20H750v20h-16.7v-20H700v20h-16.7v-20H650v20h-33.3v-20h16.7
	v-40H600c-9.2,0-16.7,9-16.7,20v40H416.7v-40c0-11-7.5-20-16.7-20h-33.3v40h16.7v20H350v-20h-33.3v20H300v-20h-33.3v20H250v-20
	h-33.3v20h-33.3v-20H200v-40h-33.3c-9.2,0-16.7,9-16.7,20v40H16.7C7.5,360,0,369,0,380v80c0,11,7.5,20,16.7,20h16.7v500
	c0,11,7.5,20,16.7,20h900c9.2,0,16.7-9,16.7-20V480h16.7c9.2,0,16.7-9,16.7-20v-80C1000,369,992.5,360,983.3,360z M933.3,960H66.7
	V480h866.7V960z M966.7,440H33.3v-40h933.3V440z"/>
<path d="M900,520H533.3c-9.2,0-16.7,9-16.7,20v360c0,11,7.5,20,16.7,20H900c9.2,0,16.7-9,16.7-20V540C916.7,529,909.2,520,900,520z
	 M883.3,880H550V560h333.3V880z"/>
<path d="M633.3,600v40H650v20c0.1,22.1,14.9,39.9,33.3,40H750c18.4-0.1,33.3-17.9,33.3-40v-20H800v-40H633.3z M750,660h-66.7v-20
	H750V660z"/>
<path d="M466.7,500H100c-9.2,0-16.7,9-16.7,20v400c0,11,7.5,20,16.7,20h366.7c9.2,0,16.7-9,16.7-20V520
	C483.3,509,475.9,500,466.7,500z M450,900H116.7V740H450V900z M450,700H116.7V540H450V700z"/>
<path d="M200,560v40h16.7v40c0,11,7.5,20,16.7,20h83.3c9.2,0,16.7-9,16.7-20v-40H350v-40H200z M300,620h-50v-20h50V620z"/>
<path d="M200,760v40h16.7v40c0,11,7.5,20,16.7,20h83.3c9.2,0,16.7-9,16.7-20v-40H350v-40H200z M300,820h-50v-20h50V820z"/>
<path d="M483.3,20H450c0-11-7.5-20-16.7-20h-300c-9.2,0-16.7,9-16.7,20H83.3C64.9,20.1,50.1,37.9,50,60v60
	c0.1,22.1,14.9,39.9,33.3,40h33.3v60c0.1,33.1,22.4,59.9,50,60H400c27.6-0.1,49.9-26.9,50-60v-60h33.3c18.4-0.1,33.3-17.9,33.3-40
	V60C516.6,37.9,501.7,20.1,483.3,20z M116.7,120H83.3V60h33.3V120z M416.7,220c0,11-7.5,20-16.7,20H166.7c-9.2,0-16.7-9-16.7-20V40
	h266.7V220z M483.3,120H450V60h33.3V120z"/>
<path d="M550,140c-9.2,0-16.7,9-16.7,20v60c0.1,33.1,22.4,59.9,50,60H850c27.6-0.1,49.9-26.9,50-60v-40h100v-40H550z M866.7,220
	c0,11-7.5,20-16.7,20H583.3c-9.2,0-16.7-9-16.7-20v-40h300V220z"/>
</svg>
