<?xml version="1.0" encoding="utf-8"?>
<!-- Generator: Adobe Illustrator 22.0.0, SVG Export Plug-In . SVG Version: 6.00 Build 0)  -->
<svg version="1.1" id="Layer_1" xmlns="http://www.w3.org/2000/svg" xmlns:xlink="http://www.w3.org/1999/xlink" x="0px" y="0px"
	 viewBox="0 0 1000 1000" style="enable-background:new 0 0 1000 1000;" xml:space="preserve">
<g>
	<g>
		<path d="M922,98.2C869.4,34.9,798.9,0,723.7,0C649.6,0,580,33.9,527.6,95.6l-27,31.8l-27.1-31.8C421.1,33.9,351.4,0,277.4,0
			C203.3,0,133.6,33.9,81.2,95.6C28.8,157.2,0,239.1,0,326.2s28.8,169.1,81.2,230.7l346.6,407.7c20,23.6,46.3,35.3,72.6,35.3
			c26.3,0,52.6-11.8,72.6-35.3l344.4-405.1C1025.7,432.3,1027.7,225.4,922,98.2z M881.2,516.9L536.8,922c-20,23.5-52.6,23.5-72.6,0
			L117.5,514.2c-42.7-50.2-66.2-117-66.2-188s23.5-137.8,66.2-188c42.7-50.2,99.4-77.9,159.8-77.9c60.3,0,117.1,27.7,159.8,77.9
			l27.1,31.9L422.8,219c-10,11.8-10,30.9,0,42.7c5,5.9,11.6,8.8,18.1,8.8c6.6,0,13.1-3,18.2-8.9l104.8-123.4
			c42.7-50.2,99.4-77.9,159.8-77.9c61.3,0,118.7,28.4,161.6,80.1C971.4,244.1,969.6,412.9,881.2,516.9z"/>
	</g>
</g>
<g>
	<g>
		<path d="M831.3,200.4c-1.4-23.4-11.3-45.4-27.9-61.9c-11.7-11.7-26.2-20.2-42-24.6c-7-1.9-14.2,2.1-16.2,9.1
			c-1.9,7,2.1,14.2,9.1,16.2c11.4,3.2,22,9.4,30.5,17.9c12,12,19.2,28,20.2,44.9c0.4,7,6.2,12.3,13.1,12.3c0.3,0,0.5,0,0.8,0
			C826.2,213.9,831.7,207.7,831.3,200.4z"/>
	</g>
</g>
</svg>
