<?xml version="1.0" encoding="utf-8"?>
<!-- Generator: Adobe Illustrator 22.0.0, SVG Export Plug-In . SVG Version: 6.00 Build 0)  -->
<svg version="1.1" id="Layer_1" xmlns="http://www.w3.org/2000/svg" xmlns:xlink="http://www.w3.org/1999/xlink" x="0px" y="0px"
	 viewBox="0 0 1000 1000" style="enable-background:new 0 0 1000 1000;" xml:space="preserve">
<path d="M983.3,0H16.7C7.5,0,0,7.5,0,16.7v966.7c0,9.2,7.5,16.7,16.7,16.7h966.7c9.2,0,16.7-7.5,16.7-16.7V16.7
	C1000,7.5,992.5,0,983.3,0z M50,926.5l-16.7,16.7V56.8L50,73.5V926.5z M56.8,966.7L73.5,950h853l16.7,16.7H56.8z M366.7,150h-100
	v-16.7c0-9.2-7.5-16.7-16.7-16.7H133.3c-9.2,0-16.7,7.5-16.7,16.7v350H83.3v-400h400v400h-100V166.7
	C383.3,157.5,375.9,150,366.7,150z M350,183.3v300h-83.3v-300H350z M233.3,150v333.3H150V150H233.3z M483.3,516.7v400h-16.7V683.3
	c0-9.2-7.5-16.7-16.7-16.7H116.7c-9.2,0-16.7,7.5-16.7,16.7v233.3H83.3v-400H483.3z M233.3,850h100c9.2,0,16.7-7.5,16.7-16.7v-66.7
	h83.3v150h-300v-150h83.3v66.7C216.7,842.5,224.1,850,233.3,850z M250,816.7v-50h66.7v50H250z M133.3,733.3V700h300v33.3H133.3z
	 M883.3,300h-16.7V166.7c0-9.2-7.5-16.7-16.7-16.7H616.7c-9.2,0-16.7,7.5-16.7,16.7v316.7h-83.3v-400h400v400H900V316.7
	C900,307.5,892.5,300,883.3,300z M766.7,400v-16.7h100v100H633.3v-100h100V400H766.7z M633.3,350v-16.7h233.3V350H633.3z
	 M716.7,233.3V250H750v-16.7h83.3V300h-200v-66.7H716.7z M633.3,200v-16.7h200V200H633.3z M916.7,516.7v400h-400v-400H916.7z
	 M926.5,50h-853L56.8,33.3h886.3L926.5,50z M966.7,943.2L950,926.5v-853l16.7-16.7V943.2z"/>
</svg>
