<?xml version="1.0" encoding="utf-8"?>
<!-- Generator: Adobe Illustrator 22.0.0, SVG Export Plug-In . SVG Version: 6.00 Build 0)  -->
<svg version="1.1" id="Capa_1" xmlns="http://www.w3.org/2000/svg" xmlns:xlink="http://www.w3.org/1999/xlink" x="0px" y="0px"
	 viewBox="0 0 1000 1000" style="enable-background:new 0 0 1000 1000;" xml:space="preserve">
<g>
	<path d="M500,0C224.3,0,0,224.3,0,500s224.3,500,500,500s500-224.3,500-500S775.7,0,500,0z M500,961.5
		C245.5,961.5,38.5,754.5,38.5,500S245.5,38.5,500,38.5S961.5,245.5,961.5,500S754.5,961.5,500,961.5z"/>
	<path d="M750,480.8H250c-10.6,0-19.2,8.6-19.2,19.2s8.6,19.2,19.2,19.2h500c10.6,0,19.2-8.6,19.2-19.2S760.6,480.8,750,480.8z"/>
</g>
</svg>
