<?xml version="1.0" encoding="utf-8"?>
<!-- Generator: Adobe Illustrator 22.0.0, SVG Export Plug-In . SVG Version: 6.00 Build 0)  -->
<svg version="1.1" id="Layer_1" xmlns="http://www.w3.org/2000/svg" xmlns:xlink="http://www.w3.org/1999/xlink" x="0px" y="0px"
	 viewBox="0 0 1000 1000" style="enable-background:new 0 0 1000 1000;" xml:space="preserve">
<g id="Frame">
	<path d="M383.3,583.3c36.8,0,66.7-29.8,66.7-66.7S420.2,450,383.3,450s-66.7,29.8-66.7,66.7S346.5,583.3,383.3,583.3z M383.3,483.3
		c18.4,0,33.3,14.9,33.3,33.3c0,18.4-14.9,33.3-33.3,33.3c-18.4,0-33.3-14.9-33.3-33.3C350,498.3,364.9,483.3,383.3,483.3z"/>
	<path d="M983.3,300h-66.7v-16.7c0-27.6-22.4-50-50-50c-11.7,0-22.9,4.2-31.8,11.8L563.8,85c1.8-5.9,2.8-12.1,2.9-18.3
		C566.7,29.8,536.8,0,500,0c-36.8,0-66.7,29.8-66.7,66.7c0.1,6.2,1.1,12.4,2.9,18.3L165.2,245c-8.9-7.5-20.2-11.6-31.8-11.7
		c-27.6,0-50,22.4-50,50V300H16.7C7.5,300,0,307.5,0,316.7v666.7c0,9.2,7.5,16.7,16.7,16.7h966.7c9.2,0,16.7-7.5,16.7-16.7V316.7
		C1000,307.5,992.5,300,983.3,300z M100,333.3h843.1l-33.3,33.3H90.2l-33.3-33.3H100z M182.4,273.7L453,113.9c26,25.9,68,25.9,94,0
		l270.6,159.8c-0.6,3.2-1,6.4-1,9.7V300H183.3v-16.7C183.3,280.1,183,276.8,182.4,273.7z M900,739.4L678.8,505.2
		c-3.3-3.4-7.8-5.3-12.5-5.2c-4.7,0.1-9.2,2.2-12.3,5.8L464.2,724.8l-70.7-57.8l-15.6-12.9c-5.9-4.7-14.2-5.2-20.6-1.2l-78,53.3
		L100,827.3V400h800V739.4z M366.2,687.8l6.8,5.5l41.2,34.1l-19.4,32.4l-35.5-23.6c-6.6-4.4-15.4-3.5-21,2.1L318,758.4l-19.7-24.7
		L366.2,687.8z M740.6,619.2l-23.9,23.9l-38.2-38.2c-6.5-6.5-17.1-6.5-23.6,0l-21.5,21.5L612,605.1l55.1-63.6L740.6,619.2z
		 M100,869.3l170.7-116.8l33,41.2c5.8,7.2,16.2,8.3,23.4,2.6c0.5-0.4,0.9-0.8,1.4-1.2l23.7-23.7l38.6,25.7c2.7,1.8,6,2.8,9.2,2.8
		c1.2,0,2.5-0.1,3.7-0.4c4.4-1,8.3-3.8,10.6-7.7l25.8-43l99,82l21.3-25.7l-70.8-58.7l100.7-116.2l31.4,31.4c6.5,6.5,17.1,6.5,23.6,0
		l21.5-21.5l38.2,38.2c6.5,6.5,17.1,6.5,23.6,0l35-35L900,788v112H100V869.3z M66.7,390.2v519.5l-33.3,33.3V356.9L66.7,390.2z
		 M90.2,933.3h819.5l33.3,33.3H56.9L90.2,933.3z M933.3,909.8V390.2l33.3-33.3v586.2L933.3,909.8z M850,283.3
		c0-9.2,7.5-16.7,16.7-16.7c9.2,0,16.7,7.5,16.7,16.7V300H850V283.3z M500,33.3c18.4,0,33.3,14.9,33.3,33.3S518.4,100,500,100
		c-18.4,0-33.3-14.9-33.3-33.3S481.6,33.3,500,33.3z M116.7,283.3c0-9.2,7.5-16.7,16.7-16.7s16.7,7.5,16.7,16.7V300h-33.3V283.3z"/>
</g>
</svg>
