<?xml version="1.0" encoding="utf-8"?>
<!-- Generator: Adobe Illustrator 22.0.0, SVG Export Plug-In . SVG Version: 6.00 Build 0)  -->
<svg version="1.1" id="Capa_1" xmlns="http://www.w3.org/2000/svg" xmlns:xlink="http://www.w3.org/1999/xlink" x="0px" y="0px"
	 viewBox="0 0 1000 1000" style="enable-background:new 0 0 1000 1000;" xml:space="preserve">
<g>
	<g>
		<path d="M971.3,487.5c-15.9,0-28.7,13.7-28.7,30.9v281.2c0,76.5-57.7,138.5-128.4,138.5H185.7c-70.9,0-128.4-62.3-128.4-138.5
			V513.9c0-17.2-12.7-30.9-28.7-30.9S0,496.7,0,513.9v285.8C0,910.2,83.4,1000,185.7,1000h628.6c102.5,0,185.7-90,185.7-200.4V518.4
			C1000,501.5,987.3,487.5,971.3,487.5z"/>
		<path d="M479.8,754.5c5.5,6,12.9,9.2,20.2,9.2s14.6-3,20.2-9.2L702.2,558c11.2-12.1,11.2-31.6,0-43.7c-11.2-12.1-29.3-12.1-40.5,0
			L528.7,658.1V30.9C528.7,13.7,515.9,0,500,0c-15.9,0-28.7,13.7-28.7,30.9v627.2L338.1,514.3c-11.2-12.1-29.3-12.1-40.5,0
			c-11.2,12.1-11.2,31.6,0,43.7L479.8,754.5z"/>
	</g>
</g>
</svg>
