<?xml version="1.0" encoding="utf-8"?>
<!-- Generator: Adobe Illustrator 22.0.0, SVG Export Plug-In . SVG Version: 6.00 Build 0)  -->
<svg version="1.1" id="Layer_1" xmlns="http://www.w3.org/2000/svg" xmlns:xlink="http://www.w3.org/1999/xlink" x="0px" y="0px"
	 viewBox="0 0 1000 1000" style="enable-background:new 0 0 1000 1000;" xml:space="preserve">
<g>
	<g>
		<path d="M989.4,395L515.3,5.6c-9.1-7.5-21.6-7.5-30.7,0L10.6,395c-11.6,9.5-14.1,27.7-5.6,40.7s24.7,15.8,36.3,6.3L500,65.3
			L958.7,442c4.6,3.8,10,5.6,15.3,5.6c8,0,15.9-4.1,21-11.9C1003.5,422.7,1000.9,404.5,989.4,395z"/>
	</g>
</g>
<g>
	<g>
		<path d="M863.8,448.6c-14.3,0-26,13-26,29.1v463.9H629.9V688.4c0-80.4-58.3-145.7-129.9-145.7s-129.9,65.4-129.9,145.7v253.3
			H162.2V477.8c0-16.1-11.6-29.1-26-29.1s-26,13-26,29.1v493.1c0,16.1,11.6,29.1,26,29.1h259.8c13.7,0,24.8-11.8,25.9-26.9
			c0.1-0.7,0.1-1.4,0.1-2.3V688.5c0-48.2,35-87.5,78-87.5s78,39.2,78,87.5v282.4c0,0.8,0,1.6,0.1,2.2c1,15,12.2,26.9,25.9,26.9
			h259.8c14.3,0,26-13,26-29.1V477.8C889.7,461.7,878.1,448.6,863.8,448.6z"/>
	</g>
</g>
</svg>
