<?xml version="1.0" encoding="utf-8"?>
<!-- Generator: Adobe Illustrator 22.0.0, SVG Export Plug-In . SVG Version: 6.00 Build 0)  -->
<svg version="1.1" id="Layer_1" xmlns="http://www.w3.org/2000/svg" xmlns:xlink="http://www.w3.org/1999/xlink" x="0px" y="0px"
	 viewBox="0 0 1000 1000" style="enable-background:new 0 0 1000 1000;" xml:space="preserve">
<path d="M983.3,366.7H366.7v-33.3c0-9.2-7.5-16.7-16.7-16.7h-66.7V300H450c18.4-0.1,33.3-14.9,33.3-33.3V33.3
	C483.3,14.9,468.4,0.1,450,0H83.3C64.9,0.1,50.1,14.9,50,33.3v233.3c0.1,18.4,14.9,33.3,33.3,33.3H250v16.7h-66.7
	c-9.2,0-16.7,7.5-16.7,16.7v33.3h-150c-9.2,0-16.7,7.5-16.7,16.7v583.3c0,9.2,7.5,16.7,16.7,16.7h66.7c9.2,0,16.7-7.5,16.7-16.7V500
	h383.3v416.7c0,9.2,7.5,16.7,16.7,16.7h16.7v50c0,9.2,7.5,16.7,16.7,16.7H600c7.7,0,14.3-5.2,16.2-12.7l13.5-54h224l13.5,54
	c1.8,7.4,8.5,12.7,16.2,12.7H950c9.2,0,16.7-7.5,16.7-16.7v-50h16.7c9.2,0,16.7-7.5,16.7-16.7V383.3
	C1000,374.1,992.5,366.7,983.3,366.7L983.3,366.7z M83.3,33.3H450v183H83.3V33.3z M83.3,266.7v-17H450v17H83.3z M200,350h133.3v16.7
	H200V350z M66.7,950H33.3V500h33.3V950z M587,966.7h-37v-33.3h45.3L587,966.7z M933.3,966.7h-37l-8.3-33.3h45.3V966.7z M966.7,900
	h-450V716.7h450V900z M966.7,683.3h-450V500h450V683.3z M966.7,466.7H33.3V400h933.3V466.7z"/>
</svg>
