<?xml version="1.0" encoding="utf-8"?>
<!-- Generator: Adobe Illustrator 22.0.0, SVG Export Plug-In . SVG Version: 6.00 Build 0)  -->
<svg version="1.1" id="Capa_1" xmlns="http://www.w3.org/2000/svg" xmlns:xlink="http://www.w3.org/1999/xlink" x="0px" y="0px"
	 viewBox="0 0 1000 1000" style="enable-background:new 0 0 1000 1000;" xml:space="preserve">
<g>
	<path d="M500,0C224.3,0,0,224.3,0,500s224.3,500,500,500s500-224.3,500-500S775.7,0,500,0z M500,961.5
		C245.5,961.5,38.5,754.5,38.5,500S245.5,38.5,500,38.5S961.5,245.5,961.5,500S754.5,961.5,500,961.5z"/>
	<path d="M740.4,480.8H519.2V269.2c0-10.6-8.6-19.2-19.2-19.2s-19.2,8.6-19.2,19.2v211.5H259.6c-10.6,0-19.2,8.6-19.2,19.2
		s8.6,19.2,19.2,19.2h221.2V750c0,10.6,8.6,19.2,19.2,19.2s19.2-8.6,19.2-19.2V519.2h221.2c10.6,0,19.2-8.6,19.2-19.2
		S751,480.8,740.4,480.8z"/>
</g>
</svg>
