<?xml version="1.0" encoding="utf-8"?>
<!-- Generator: Adobe Illustrator 22.0.0, SVG Export Plug-In . SVG Version: 6.00 Build 0)  -->
<svg version="1.1" id="Layer_1" xmlns="http://www.w3.org/2000/svg" xmlns:xlink="http://www.w3.org/1999/xlink" x="0px" y="0px"
	 viewBox="0 0 1000 1000" style="enable-background:new 0 0 1000 1000;" xml:space="preserve">
<g>
	<path d="M987.8,929L747.3,688.6c59.6-72.7,95.5-165.7,95.5-267.1C842.9,188.8,654.1,0,421.4,0C188.6,0,0,188.8,0,421.4
		s188.6,421.4,421.4,421.4c101.4,0,194.3-35.7,266.9-95.3l240.4,240.2c16.3,16.3,42.7,16.3,59,0
		C1004.1,971.6,1004.1,945.1,987.8,929z M421.4,759C235.1,759,83.7,607.6,83.7,421.4S235.1,83.7,421.4,83.7
		c186.1,0,337.8,151.6,337.8,337.8S607.6,759,421.4,759z"/>
</g>
</svg>
